<?xml version="1.0" standalone="no"?><!DOCTYPE svg PUBLIC "-//W3C//DTD SVG 1.1//EN" "http://www.w3.org/Graphics/SVG/1.1/DTD/svg11.dtd"><svg t="1656665922069" class="icon" viewBox="0 0 1024 1024" version="1.1" xmlns="http://www.w3.org/2000/svg" p-id="4363" xmlns:xlink="http://www.w3.org/1999/xlink" width="200" height="200"><defs><style type="text/css">@font-face { font-family: feedback-iconfont; src: url("//at.alicdn.com/t/font_1031158_u69w8yhxdu.woff2?t=1630033759944") format("woff2"), url("//at.alicdn.com/t/font_1031158_u69w8yhxdu.woff?t=1630033759944") format("woff"), url("//at.alicdn.com/t/font_1031158_u69w8yhxdu.ttf?t=1630033759944") format("truetype"); }
</style></defs><path d="M458.666667 106.666667a32 32 0 0 1 0 64l-113.130667-0.021334L234.666667 170.666667a64 64 0 0 0-64 64v544h-0.021334l0.021334 10.858666a64 64 0 0 0 60.245333 63.893334l3.754667 0.106666V853.333333h554.666666l-0.021333 0.170667h0.213333L789.504 853.333333l3.584-0.106666A64 64 0 0 0 853.333333 789.504h0.192L853.504 789.333333 853.333333 789.333333V565.333333a32 32 0 0 1 64 0V789.333333a128 128 0 0 1-128 128l-548.224 0.021334a128 128 0 0 1-133.973333-138.666667L106.666667 778.666667V256c0-2.432 0.277333-4.8 0.789333-7.082667A128 128 0 0 1 256 108.437333L256 106.666667h202.666667z" p-id="4364" fill="#ffffff"></path><path d="M917.333333 373.333333v-234.666666A32 32 0 0 0 885.333333 106.666667h-234.666666a32 32 0 1 0 0 64l156.522666 0.021333-349.098666 349.077333a32 32 0 0 0 45.248 45.248L853.333333 215.04v158.293333a32 32 0 0 0 64 0z" p-id="4365" fill="#ffffff"></path></svg>