<?xml version="1.0" standalone="no"?><!DOCTYPE svg PUBLIC "-//W3C//DTD SVG 1.1//EN" "http://www.w3.org/Graphics/SVG/1.1/DTD/svg11.dtd"><svg t="1656665895034" class="icon" viewBox="0 0 1024 1024" version="1.1" xmlns="http://www.w3.org/2000/svg" p-id="3406" xmlns:xlink="http://www.w3.org/1999/xlink" width="200" height="200"><defs><style type="text/css">@font-face { font-family: feedback-iconfont; src: url("//at.alicdn.com/t/font_1031158_u69w8yhxdu.woff2?t=1630033759944") format("woff2"), url("//at.alicdn.com/t/font_1031158_u69w8yhxdu.woff?t=1630033759944") format("woff"), url("//at.alicdn.com/t/font_1031158_u69w8yhxdu.ttf?t=1630033759944") format("truetype"); }
</style></defs><path d="M798.72 657.408c-8.192 0-16.384 8.192-16.384 16.384l0 79.872c0 18.432-14.336 32.768-32.768 32.768L296.96 786.432c-18.432 0-32.768-14.336-32.768-32.768l0-79.872c0-8.192-8.192-16.384-16.384-16.384-8.192 0-16.384 8.192-16.384 16.384l0 79.872c0 34.816 28.672 65.536 65.536 65.536l452.608 0c34.816 0 65.536-28.672 65.536-65.536l0-79.872C813.056 665.6 806.912 657.408 798.72 657.408zM512 669.696c4.096 4.096 8.192 4.096 12.288 4.096 2.048 0 4.096 0 6.144-2.048 6.144-2.048 10.24-8.192 10.24-14.336L540.672 221.184c0-8.192-8.192-16.384-16.384-16.384-8.192 0-16.384 8.192-16.384 16.384l0 397.312L292.864 403.456c-6.144-6.144-16.384-6.144-22.528 0-6.144 6.144-6.144 16.384 0 22.528L512 669.696zM620.544 577.536c4.096 0 8.192-2.048 12.288-4.096l145.408-145.408c6.144-6.144 6.144-16.384 0-22.528-6.144-6.144-16.384-6.144-22.528 0l-145.408 145.408c-6.144 6.144-6.144 16.384 0 22.528C612.352 575.488 616.448 577.536 620.544 577.536z" p-id="3407" fill="#ffffff"></path></svg>